<svg width="24" height="24" viewBox="0 0 24 24" fill="none" xmlns="http://www.w3.org/2000/svg">
<path d="M13 11.5C13 10.6716 13.6716 10 14.5 10C15.3284 10 16 10.6716 16 11.5C16 12.3284 15.3284 13 14.5 13C13.6716 13 13 12.3284 13 11.5Z" fill="#F28C26"/>
<path d="M11.136 13.1025C10.9989 12.8832 10.7586 12.75 10.5 12.75C10.2414 12.75 10.0011 12.8832 9.864 13.1025L7.364 17.1025C7.2195 17.3337 7.21185 17.6251 7.34402 17.8636C7.47619 18.102 7.72736 18.25 8 18.25H16C16.2841 18.25 16.5438 18.0895 16.6708 17.8354C16.7979 17.5813 16.7705 17.2773 16.6 17.05L15.1 15.05C14.9584 14.8611 14.7361 14.75 14.5 14.75C14.2639 14.75 14.0416 14.8611 13.9 15.05L13.0563 16.175L11.136 13.1025Z" fill="#F28C26"/>
<path fill-rule="evenodd" clip-rule="evenodd" d="M7 2.25C5.48122 2.25 4.25 3.48122 4.25 5V19C4.25 20.5188 5.48122 21.75 7 21.75H17C18.5188 21.75 19.75 20.5188 19.75 19V7.96766C19.75 7.58689 19.6258 7.21651 19.3963 6.9127L16.3985 2.94504C16.0677 2.5073 15.5509 2.25 15.0022 2.25H7ZM5.75 5C5.75 4.30964 6.30964 3.75 7 3.75H14.25V8.14705C14.25 8.56126 14.5858 8.89705 15 8.89705H18.25V19C18.25 19.6904 17.6904 20.25 17 20.25H7C6.30964 20.25 5.75 19.6904 5.75 19V5Z" fill="#F28C26"/>
</svg>
