<svg width="18" height="19" viewBox="0 0 18 19" fill="none" xmlns="http://www.w3.org/2000/svg">
<path d="M2.80264 4.25C2.80264 3.69772 3.25036 3.25 3.80264 3.25C4.35493 3.25 4.80264 3.69772 4.80264 4.25C4.80264 4.80228 4.35493 5.25 3.80264 5.25C3.25036 5.25 2.80264 4.80228 2.80264 4.25Z" fill="#F28C26"/>
<path d="M5.80264 4.25C5.80264 3.69772 6.25036 3.25 6.80264 3.25C7.35493 3.25 7.80264 3.69772 7.80264 4.25C7.80264 4.80228 7.35493 5.25 6.80264 5.25C6.25036 5.25 5.80264 4.80228 5.80264 4.25Z" fill="#F28C26"/>
<path d="M3.80264 10.25C3.25036 10.25 2.80264 10.6977 2.80264 11.25C2.80264 11.8023 3.25036 12.25 3.80264 12.25C4.35493 12.25 4.80264 11.8023 4.80264 11.25C4.80264 10.6977 4.35493 10.25 3.80264 10.25Z" fill="#F28C26"/>
<path d="M6.80264 10.25C6.25036 10.25 5.80264 10.6977 5.80264 11.25C5.80264 11.8023 6.25036 12.25 6.80264 12.25C7.35493 12.25 7.80264 11.8023 7.80264 11.25C7.80264 10.6977 7.35493 10.25 6.80264 10.25Z" fill="#F28C26"/>
<path fill-rule="evenodd" clip-rule="evenodd" d="M2.75 0C1.23122 0 0 1.23122 0 2.75V5.75C0 6.53801 0.331445 7.24862 0.862531 7.75C0.331445 8.25138 0 8.96199 0 9.75V12.75C0 14.2688 1.23122 15.5 2.75 15.5H8.05264V17H1.80264C1.38843 17 1.05264 17.3358 1.05264 17.75C1.05264 18.1642 1.38843 18.5 1.80264 18.5H15.8026C16.2169 18.5 16.5526 18.1642 16.5526 17.75C16.5526 17.3358 16.2169 17 15.8026 17H9.55264V15.5H14.75C16.2688 15.5 17.5 14.2688 17.5 12.75V9.75C17.5 8.96198 17.1686 8.25139 16.6375 7.75C17.1686 7.24862 17.5 6.53802 17.5 5.75V2.75C17.5 1.23122 16.2688 0 14.75 0H2.75ZM2.75 7H14.75C15.4404 7 16 6.44036 16 5.75V2.75C16 2.05964 15.4404 1.5 14.75 1.5H2.75C2.05964 1.5 1.5 2.05964 1.5 2.75V5.75C1.5 6.44036 2.05964 7 2.75 7ZM2.75 8.5C2.05964 8.5 1.5 9.05964 1.5 9.75V12.75C1.5 13.4404 2.05964 14 2.75 14H14.75C15.4404 14 16 13.4404 16 12.75V9.75C16 9.05964 15.4404 8.5 14.75 8.5H2.75Z" fill="#F28C26"/>
</svg>
