<svg xmlns="http://www.w3.org/2000/svg" width="21" height="20"><path fill="#FFF" d="M10.333 1.802c2.67 0 2.987.01 4.042.059 2.71.123 3.976 1.409 4.1 4.099.048 1.054.057 1.37.057 4.04 0 2.672-.01 2.988-.058 4.042-.124 2.687-1.386 3.975-4.099 4.099-1.055.048-1.37.058-4.042.058-2.67 0-2.986-.01-4.04-.058-2.717-.124-3.976-1.416-4.1-4.1-.048-1.054-.058-1.37-.058-4.041 0-2.67.01-2.986.058-4.04.124-2.69 1.387-3.977 4.1-4.1 1.054-.048 1.37-.058 4.04-.058zm0-1.802C7.618 0 7.278.012 6.211.06 2.579.227.56 2.242.394 5.877.345 6.944.334 7.284.334 10s.011 3.057.06 4.123c.166 3.632 2.181 5.65 5.816 5.817 1.068.048 1.408.06 4.123.06 2.716 0 3.057-.012 4.124-.06 3.628-.167 5.651-2.182 5.816-5.817.049-1.066.06-1.407.06-4.123s-.011-3.056-.06-4.122C20.11 2.249 18.093.228 14.458.06 13.39.01 13.049 0 10.333 0zm0 4.865a5.135 5.135 0 100 10.27 5.135 5.135 0 000-10.27zm0 8.468a3.333 3.333 0 110-6.666 3.333 3.333 0 010 6.666zm5.339-9.87a1.2 1.2 0 10-.001 2.4 1.2 1.2 0 000-2.4z"/></svg>